PathFileType	4	(X/Y/Z)	Walk1.trc
DataRate	CameraRate	NumFrames	NumMarkers	Units	OrigDataRate	OrigDataStartFrame	OrigNumFrames
200.000000	200.000000	4	61	mm	200.000000	493	638
Frame#	Times		RCAR		LToe		LLFC		LASI		LFA1		RACR1		LUA1		RWRR		LCAR		LElbow		RLFC		LWRR		RTB2		RToe		RFA1		LACR1		RMT1		RTH3		RTH2		RTB3		LTH3		RFHD		RMT5		LTH4		RTB1		STRN		LFHD		LTB1		RTB4		LTB4		LWRU		RCAL		RWRU		LPSI		LTH2		C7		LMT1		RPSI		RMMAL		RLMAL		RASI		RMFC		LTB3		CLAV		LTB2		RElbow		LBHD		RBHD		LMFC		RUA1		RBack		RElbowM		LMMAL		RTH4		LElbowM		LMT5		LCAL		T10		LTH1		LLMAL		RTH1
			X1	Y1	Z1	X2	Y2	Z2	X3	Y3	Z3	X4	Y4	Z4	X5	Y5	Z5	X6	Y6	Z6	X7	Y7	Z7	X8	Y8	Z8	X9	Y9	Z9	X10	Y10	Z10	X11	Y11	Z11	X12	Y12	Z12	X13	Y13	Z13	X14	Y14	Z14	X15	Y15	Z15	X16	Y16	Z16	X17	Y17	Z17	X18	Y18	Z18	X19	Y19	Z19	X20	Y20	Z20	X21	Y21	Z21	X22	Y22	Z22	X23	Y23	Z23	X24	Y24	Z24	X25	Y25	Z25	X26	Y26	Z26	X27	Y27	Z27	X28	Y28	Z28	X29	Y29	Z29	X30	Y30	Z30	X31	Y31	Z31	X32	Y32	Z32	X33	Y33	Z33	X34	Y34	Z34	X35	Y35	Z35	X36	Y36	Z36	X37	Y37	Z37	X38	Y38	Z38	X39	Y39	Z39	X40	Y40	Z40	X41	Y41	Z41	X42	Y42	Z42	X43	Y43	Z43	X44	Y44	Z44	X45	Y45	Z45	X46	Y46	Z46	X47	Y47	Z47	X48	Y48	Z48	X49	Y49	Z49	X50	Y50	Z50	X51	Y51	Z51	X52	Y52	Z52	X53	Y53	Z53	X54	Y54	Z54	X55	Y55	Z55	X56	Y56	Z56	X57	Y57	Z57	X58	Y58	Z58	X59	Y59	Z59	X60	Y60	Z60	X61	Y61	Z61

493	2.465	779.32	916.45	434.03	1056	141.54	4.5708	700.19	510.33	-86.111	625.54	1024.3	-74.248	544.22	1043.4	-245.87	552.97	1498	271.54	511.15	1342.2	-181.26	762.55	957.27	375.2	583.08	879	-266.65	464.46	1174.9	-224.9	401.51	507.28	237.64	595.22	917.17	-211.54	394.82	267.97	199.76	508.29	34.428	123.71	670.86	1067.4	411.9	533.34	1525.8	-100.16	458.56	52.032	107.34	419.69	646.77	254.14	485.83	724.73	270.83	375.22	191.91	127.68	665.22	644.75	-117.84	688.1	1697.8	153.2	408.31	29.542	202.19	635.69	725.86	-132.29	425.01	356.53	149.55	675.93	1294.1	80.964	687.26	1704.4	48.003	788.55	388.65	15.911	400.33	273.54	137.65	812.11	307.05	17.011	511.61	914.74	-255.83	233.74	49.914	113.75	708.67	926.38	438.22	393.38	1061.9	-0.67088	687.59	749.68	-116.58	438.97	1549.6	97.951	1004.6	121.22	17.109	383.55	1063.6	107.59	332.13	106.27	69.356	295.36	78.592	158.05	586.46	1037	240.39	405.77	507.08	88.061	839.74	225.56	17.029	608.22	1466.6	72.333	833.58	311.92	-42.72	548.74	1162.6	408.63	520.43	1689.9	29.13	518.11	1684.3	170.68	707.3	506.54	58.615	560.55	1323	353	389.45	1423.4	215.41	521.49	1124.5	322.56	857.51	124.46	52.809	426.52	729.1	265.09	442.4	1147.7	-136.96	978.87	91.121	-66.204	798.68	42.193	-8.1501	404.4	1192.8	60.529	603.83	806.44	-143	850.71	93.553	-46.626	435.44	816.31	277.85
494	2.47	785.29	916.14	433.74	1066.4	145.08	4.5209	705.13	509.17	-85.939	631.21	1023.3	-74.152	549.74	1042.2	-245.91	558.26	1497.2	271.16	516.88	1341.2	-181.51	768.43	956.92	374.91	588.35	877.75	-266.57	470.16	1173.9	-225.02	404.32	507.15	237.46	600.51	915.91	-211.44	396.18	267.83	199.66	508.38	34.446	123.68	676.57	1066.8	411.64	538.95	1524.9	-100.53	458.71	52.02	107.36	423.21	646.55	253.99	489.75	724.2	270.68	376.14	191.97	127.53	669.16	643.16	-118.06	693.3	1697.1	152.8	408.29	29.524	202.08	639.82	724.32	-132.59	426.99	356.2	149.46	681.43	1293.3	80.813	692.48	1703.7	47.596	795.54	388.78	16.039	401.81	273.37	137.56	820.26	307.49	17.309	516.94	913.66	-255.86	233.87	50.585	113.48	714.61	925.95	437.94	398.98	1061.1	-1.0048	691.81	748.03	-117.03	444.33	1548.7	97.483	1015.4	124.18	17.279	389.07	1062.8	107.22	332.58	106.57	69.224	295.57	79.05	157.89	591.32	1036.3	240.2	408.92	506.88	87.945	849.02	226.34	17.474	613.67	1465.7	72.019	841.29	312.4	-42.52	554.27	1161.9	408.39	525.66	1689	28.699	523.33	1683.4	170.24	712.37	505.59	58.827	565.94	1322.3	352.7	394.8	1422.5	214.94	527.1	1123.8	322.33	868.28	125.59	53.538	430.44	728.86	264.99	448.05	1146.8	-137.08	989.84	93.038	-65.654	810.37	42.138	-6.8391	409.89	1191.9	60.231	608.15	805.02	-143.24	861.52	94.194	-45.71	439.77	816.02	277.74
495	2.475	791.19	915.77	433.45	1076.3	148.22	4.3312	710.17	508.02	-85.725	636.9	1022.3	-74.068	555.3	1041.1	-245.99	563.58	1496.4	270.75	522.64	1340.2	-181.78	774.26	956.51	374.62	593.66	876.49	-266.51	475.89	1172.9	-225.18	407.19	507.02	237.3	605.83	914.63	-211.37	397.56	267.71	199.57	508.46	34.47	123.64	682.25	1066.3	411.36	544.58	1523.9	-100.93	458.87	52.006	107.38	426.78	646.34	253.85	493.73	723.67	270.54	377.09	192.04	127.39	673.3	641.65	-118.25	698.53	1696.4	152.37	408.28	29.514	201.98	644.09	722.84	-132.94	429	355.89	149.38	686.96	1292.5	80.63	697.72	1702.9	47.163	802.48	388.84	16.186	403.32	273.21	137.47	828.2	307.84	17.644	522.31	912.56	-255.93	234.01	51.305	113.24	720.48	925.48	437.66	404.6	1060.2	-1.331	696.17	746.48	-117.55	449.72	1547.8	96.993	1025.6	126.84	17.367	394.64	1062	106.87	333.04	106.9	69.108	295.79	79.538	157.74	596.21	1035.6	239.99	412.12	506.68	87.841	857.94	227.01	17.969	619.15	1464.9	71.676	848.76	312.74	-42.298	559.8	1161.1	408.14	530.92	1688.1	28.243	528.57	1682.5	169.77	717.63	504.73	59.032	571.35	1321.5	352.37	400.18	1421.6	214.46	532.69	1123	322.08	878.55	126.6	54.342	434.43	728.63	264.9	453.72	1145.9	-137.24	1000.1	94.644	-65.133	821.4	42.049	-5.3484	415.41	1190.9	59.949	612.57	803.65	-143.5	871.69	94.696	-44.705	444.16	815.72	277.64
496	2.48	797.01	915.33	433.16	1085.6	150.91	4.0171	715.3	506.86	-85.467	642.61	1021.3	-74	560.91	1039.9	-246.08	568.92	1495.6	270.32	528.43	1339.2	-182.08	780.02	956.04	374.33	599.02	875.21	-266.47	481.67	1171.8	-225.38	410.13	506.89	237.16	611.19	913.35	-211.32	398.99	267.6	199.5	508.53	34.495	123.61	687.88	1065.7	411.08	550.24	1523	-101.35	459.01	51.989	107.4	430.42	646.13	253.72	497.77	723.14	270.39	378.05	192.13	127.27	677.67	640.24	-118.41	703.78	1695.6	151.91	408.26	29.51	201.88	648.52	721.44	-133.31	431.06	355.58	149.31	692.5	1291.7	80.415	702.99	1702.2	46.705	809.34	388.82	16.362	404.86	273.06	137.4	835.91	308.08	18.019	527.73	911.44	-256.02	234.15	52.077	113.02	726.27	924.94	437.37	410.24	1059.3	-1.6493	700.71	745.04	-118.16	455.12	1546.8	96.481	1035.2	129.13	17.385	400.23	1061.3	106.53	333.5	107.25	69.013	296.02	80.058	157.61	601.17	1034.9	239.75	415.36	506.48	87.749	866.48	227.52	18.512	624.65	1464	71.304	855.99	312.91	-42.048	565.3	1160.4	407.86	536.2	1687.2	27.761	533.84	1681.6	169.29	723.07	503.95	59.239	576.76	1320.8	352.02	405.59	1420.7	213.96	538.26	1122.1	321.81	888.29	127.46	55.211	438.47	728.41	264.81	459.41	1144.9	-137.44	1009.7	95.901	-64.64	831.74	41.904	-3.7039	420.95	1190	59.682	617.12	802.33	-143.8	881.19	95.029	-43.623	448.6	815.43	277.54
